<svg xmlns="http://www.w3.org/2000/svg" width="200" height="200" viewBox="0 0 200 200">
  <!-- 背景 -->
  <circle cx="100" cy="100" r="100" fill="#ff6b9d"/>
  <!-- 脸部 -->
  <circle cx="100" cy="90" r="50" fill="#fff"/>
  <!-- 眼睛 -->
  <circle cx="80" cy="85" r="5" fill="#333"/>
  <circle cx="120" cy="85" r="5" fill="#333"/>
  <!-- 腮红 -->
  <circle cx="70" cy="95" r="8" fill="#ffcccc" opacity="0.6"/>
  <circle cx="130" cy="95" r="8" fill="#ffcccc" opacity="0.6"/>
  <!-- 嘴巴 (心形) -->
  <path d="M 90 110 Q 100 125 110 110" fill="none" stroke="#ff6b9d" stroke-width="3" stroke-linecap="round"/>
  <!-- 装饰: 小爱心 -->
  <path d="M 150 40 C 150 35 145 30 140 30 C 135 30 130 35 130 40 C 130 35 125 30 120 30 C 115 30 110 35 110 40 C 110 50 150 50 150 40" fill="#ff6b9d" opacity="0.7"/>
  <path d="M 50 150 C 50 145 45 140 40 140 C 35 140 30 145 30 150 C 30 160 70 160 70 150" fill="#ff6b9d" opacity="0.7"/>
</svg>
